<?xml version="1.0" encoding="UTF-8"?>
<svg id="Layer_1" data-name="Layer 1" xmlns="http://www.w3.org/2000/svg" viewBox="0 0 1000 1000">
  <defs>
    <style>
      .cls-1 {
        fill: #4d4bfe;
      }

      .cls-1, .cls-2 {
        stroke-width: 0px;
      }

      .cls-2 {
        fill: #d9d7ff;
      }
    </style>
  </defs>
  <rect class="cls-2" y="0" width="1000" height="1000" rx="200" ry="200"/>
  <polygon class="cls-1" points="875 550 686.6 550 849.76 644.2 799.76 730.8 636.6 636.6 730.8 799.76 644.2 849.76 550 686.6 550 875 450 875 450 686.6 355.8 849.76 269.2 799.76 363.4 636.6 200.24 730.8 150.24 644.2 313.4 550 125 550 125 450 313.4 450 150.24 355.8 200.24 269.2 363.4 363.4 269.2 200.24 355.8 150.24 450 313.4 450 125 550 125 550 313.4 644.2 150.24 730.8 200.24 636.6 363.4 799.76 269.2 849.76 355.8 686.6 450 875 450 875 550"/>
</svg>